<?xml version="1.0" encoding="UTF-8" standalone="no"?>
<!DOCTYPE svg PUBLIC "-//W3C//DTD SVG 1.1//EN"
 "http://www.w3.org/Graphics/SVG/1.1/DTD/svg11.dtd">
<!-- Generated by graphviz version 2.40.1 (20161225.0304)
 -->
<!-- Title: heimdall Pages: 1 -->
<svg width="440pt" height="208pt"
 viewBox="0.00 0.00 439.95 208.00" xmlns="http://www.w3.org/2000/svg" xmlns:xlink="http://www.w3.org/1999/xlink">
<g id="graph0" class="graph" transform="scale(1 1) rotate(0) translate(4 204)">
<title>heimdall</title>
<polygon fill="#ffffff" stroke="transparent" points="-4,4 -4,-204 435.9482,-204 435.9482,4 -4,4"/>
<!-- node0 -->
<g id="node1" class="node">
<title>node0</title>
<polygon fill="none" stroke="#000000" points="184.6172,-177.5 184.6172,-199.5 243.3828,-199.5 243.3828,-177.5 184.6172,-177.5"/>
<text text-anchor="middle" x="214" y="-184.3" font-family="Times,serif" font-size="14.00" fill="#000000">axon&#45;ui</text>
</g>
<!-- node1 -->
<g id="node2" class="node">
<title>node1</title>
<polygon fill="none" stroke="#000000" points="187,-118.5 187,-140.5 241,-140.5 241,-118.5 187,-118.5"/>
<text text-anchor="middle" x="213.9448" y="-125.3" font-family="Times,serif" font-size="14.00" fill="#000000">nginx</text>
</g>
<!-- node0&#45;&gt;node1 -->
<g id="edge1" class="edge">
<title>node0:f0&#45;&gt;node1:f0</title>
<path fill="none" stroke="#000000" d="M214,-177.4026C214,-169.9034 214,-159.7626 214,-150.7421"/>
<polygon fill="#000000" stroke="#000000" points="217.5001,-150.5477 214,-140.5477 210.5001,-150.5477 217.5001,-150.5477"/>
</g>
<!-- node2 -->
<g id="node3" class="node">
<title>node2</title>
<polygon fill="none" stroke="#ff0000" points="181.5068,-59.5 181.5068,-81.5 246.4932,-81.5 246.4932,-59.5 181.5068,-59.5"/>
<text text-anchor="middle" x="214" y="-66.3" font-family="Times,serif" font-size="14.00" fill="#000000">heimdall</text>
</g>
<!-- node1&#45;&gt;node2 -->
<g id="edge2" class="edge">
<title>node1:f0&#45;&gt;node2:f0</title>
<path fill="none" stroke="#000000" d="M214,-118.4026C214,-110.9034 214,-100.7626 214,-91.7421"/>
<polygon fill="#000000" stroke="#000000" points="217.5001,-91.5477 214,-81.5477 210.5001,-91.5477 217.5001,-91.5477"/>
</g>
<!-- node3 -->
<g id="node4" class="node">
<title>node3</title>
<polygon fill="none" stroke="#000000" points="0,-.5 0,-22.5 54,-22.5 54,-.5 0,-.5"/>
<text text-anchor="middle" x="26.9966" y="-7.3" font-family="Times,serif" font-size="14.00" fill="#000000">audit</text>
</g>
<!-- node2&#45;&gt;node3 -->
<g id="edge5" class="edge">
<title>node2:f0&#45;&gt;node3:f0</title>
<path fill="none" stroke="#000000" d="M183.3586,-59.4368C182.9031,-59.2891 182.45,-59.1434 182,-59 128.6104,-41.9818 111.0748,-42.9066 61.5203,-25.9703"/>
<polygon fill="#000000" stroke="#000000" points="62.4738,-22.5958 51.879,-22.5918 60.1588,-29.202 62.4738,-22.5958"/>
</g>
<!-- node4 -->
<g id="node5" class="node">
<title>node4</title>
<polygon fill="none" stroke="#000000" points="72,-.5 72,-22.5 126,-22.5 126,-.5 72,-.5"/>
<text text-anchor="middle" x="98.938" y="-7.3" font-family="Times,serif" font-size="14.00" fill="#000000">dredd</text>
</g>
<!-- node2&#45;&gt;node4 -->
<g id="edge6" class="edge">
<title>node2:f0&#45;&gt;node4:f0</title>
<path fill="none" stroke="#000000" d="M192.3694,-59.4026C174.6202,-50.2964 149.2788,-37.2952 129.4743,-27.1346"/>
<polygon fill="#000000" stroke="#000000" points="131.0287,-23.9984 120.5336,-22.5477 127.8333,-30.2266 131.0287,-23.9984"/>
</g>
<!-- node5 -->
<g id="node6" class="node">
<title>node5</title>
<polygon fill="none" stroke="#000000" points="143.5103,-.5 143.5103,-22.5 208.4897,-22.5 208.4897,-.5 143.5103,-.5"/>
<text text-anchor="middle" x="176" y="-7.3" font-family="Times,serif" font-size="14.00" fill="#000000">komrade</text>
</g>
<!-- node2&#45;&gt;node5 -->
<g id="edge7" class="edge">
<title>node2:f0&#45;&gt;node5:f0</title>
<path fill="none" stroke="#000000" d="M206.8525,-59.4026C201.7041,-51.4089 194.6225,-40.4138 188.5423,-30.9736"/>
<polygon fill="#000000" stroke="#000000" points="191.4728,-29.0597 183.1155,-22.5477 185.5878,-32.85 191.4728,-29.0597"/>
</g>
<!-- node6 -->
<g id="node7" class="node">
<title>node6</title>
<polygon fill="none" stroke="#000000" points="226,-.5 226,-22.5 280,-22.5 280,-.5 226,-.5"/>
<text text-anchor="middle" x="252.9448" y="-7.3" font-family="Times,serif" font-size="14.00" fill="#000000">nino</text>
</g>
<!-- node2&#45;&gt;node6 -->
<g id="edge8" class="edge">
<title>node2:f0&#45;&gt;node6:f0</title>
<path fill="none" stroke="#000000" d="M221.3356,-59.4026C226.6195,-51.4089 233.8875,-40.4138 240.1277,-30.9736"/>
<polygon fill="#000000" stroke="#000000" points="243.1027,-32.8199 245.6973,-22.5477 237.2631,-28.9599 243.1027,-32.8199"/>
</g>
<!-- node7 -->
<g id="node8" class="node">
<title>node7</title>
<polygon fill="none" stroke="#000000" points="298,-.5 298,-22.5 352,-22.5 352,-.5 298,-.5"/>
<text text-anchor="middle" x="324.7207" y="-7.3" font-family="Times,serif" font-size="14.00" fill="#000000">rtm</text>
</g>
<!-- node2&#45;&gt;node7 -->
<g id="edge4" class="edge">
<title>node2:f0&#45;&gt;node7:f0</title>
<path fill="none" stroke="#000000" d="M234.8783,-59.4026C251.9326,-50.3376 276.2488,-37.4128 295.3259,-27.2727"/>
<polygon fill="#000000" stroke="#000000" points="297.028,-30.3318 304.2154,-22.5477 293.7425,-24.1507 297.028,-30.3318"/>
</g>
<!-- node8 -->
<g id="node9" class="node">
<title>node8</title>
<polygon fill="none" stroke="#000000" points="370.0518,-.5 370.0518,-22.5 431.9482,-22.5 431.9482,-.5 370.0518,-.5"/>
<text text-anchor="middle" x="401" y="-7.3" font-family="Times,serif" font-size="14.00" fill="#000000">sessions</text>
</g>
<!-- node2&#45;&gt;node8 -->
<g id="edge3" class="edge">
<title>node2:f0&#45;&gt;node8:f0</title>
<path fill="none" stroke="#000000" d="M244.643,-59.442C245.0981,-59.2927 245.5506,-59.1453 246,-59 297.6793,-42.2913 314.1972,-41.4113 362.52,-25.7818"/>
<polygon fill="#000000" stroke="#000000" points="363.8743,-29.0208 372.2773,-22.568 361.6843,-22.3722 363.8743,-29.0208"/>
</g>
</g>
</svg>
